<svg xmlns="http://www.w3.org/2000/svg" viewBox="0 0 200 200" width="512" height="512">
  <defs><clipPath id="m"><circle cx="100" cy="100" r="91"/></clipPath></defs>
  <circle cx="100" cy="100" r="99" fill="#B0643A"/>
  <circle cx="100" cy="100" r="94.5" fill="none" stroke="#7A3F1F" stroke-width="2"/>
  <circle cx="100" cy="100" r="91" fill="#D9C08A"/>
  <g clip-path="url(#m)">
    <circle cx="100" cy="92" r="58" fill="#FFFFFF" fill-opacity="0.08"/>
    <path d="M18 200 C22 164 54 150 100 150 C146 150 178 164 182 200 Z" fill="#B87443"/>
    <rect x="88" y="118" width="24" height="36" fill="#A0622F"/>
    <path d="M58 154 L100 204" stroke="#C9A66B" stroke-width="8" stroke-linecap="round"/>
    <path d="M58 154 L100 204" stroke="#8C6A3A" stroke-width="2" stroke-dasharray="3 4"/>
    <path d="M84 150 Q100 166 116 150" fill="none" stroke="#5A3A1E" stroke-width="2"/>
    <circle cx="100" cy="160" r="3.5" fill="#2BA5A0"/>
    <ellipse cx="72.5" cy="102" rx="5" ry="8" fill="#A0622F"/>
    <ellipse cx="127.5" cy="102" rx="5" ry="8" fill="#A0622F"/>
    <ellipse cx="100" cy="100" rx="27" ry="33" fill="#B87443"/>
    <path d="M79 89 Q88 84 97 88" fill="none" stroke="#1A1410" stroke-width="2.6" stroke-linecap="round"/>
    <path d="M103 88 Q112 84 121 89" fill="none" stroke="#1A1410" stroke-width="2.6" stroke-linecap="round"/>
    <path d="M81 96 Q88 91.5 95 96 Q88 99.5 81 96 Z" fill="#F4EDE0"/>
    <path d="M105 96 Q112 91.5 119 96 Q112 99.5 105 96 Z" fill="#F4EDE0"/>
    <circle cx="88.5" cy="95.6" r="2.8" fill="#1A1410"/>
    <circle cx="111.5" cy="95.6" r="2.8" fill="#1A1410"/>
    <path d="M81 96 Q88 91.5 95 96 M81 96 L74 98.5" fill="none" stroke="#1A1410" stroke-width="1.8" stroke-linecap="round"/>
    <path d="M105 96 Q112 91.5 119 96 M119 96 L126 98.5" fill="none" stroke="#1A1410" stroke-width="1.8" stroke-linecap="round"/>
    <path d="M100 99 L97.5 111 Q100 113 103 111.5" fill="none" stroke="#8A4F28" stroke-width="1.8" stroke-linecap="round" stroke-linejoin="round"/>
    <path d="M93.5 119 Q100 122.5 106.5 119" fill="none" stroke="#6B3420" stroke-width="2.2" stroke-linecap="round"/>
    <path d="M73 98 C69 66 84 57 100 57 C116 57 131 66 127 98 C125 84 117 75 100 75 C83 75 75 84 73 98 Z" fill="#1A1410"/>
    <path d="M73.5 88 Q100 77 126.5 88 L126 94 Q100 83 74 94 Z" fill="#A63A2A"/>
  </g>
</svg>
